<svg width="28" height="28" viewBox="0 0 28 28" fill="none" xmlns="http://www.w3.org/2000/svg">
<path d="M22.1667 8.16665H18.6667V6.99998C18.6667 5.7623 18.1751 4.57532 17.2999 3.70015C16.4247 2.82498 15.2378 2.33331 14.0001 2.33331C12.7624 2.33331 11.5754 2.82498 10.7002 3.70015C9.82508 4.57532 9.33341 5.7623 9.33341 6.99998V8.16665H5.83341C5.524 8.16665 5.22725 8.28956 5.00846 8.50836C4.78966 8.72715 4.66675 9.02389 4.66675 9.33331V22.1666C4.66675 23.0949 5.0355 23.9851 5.69187 24.6415C6.34825 25.2979 7.23849 25.6666 8.16675 25.6666H19.8334C20.7617 25.6666 21.6519 25.2979 22.3083 24.6415C22.9647 23.9851 23.3334 23.0949 23.3334 22.1666V9.33331C23.3334 9.02389 23.2105 8.72715 22.9917 8.50836C22.7729 8.28956 22.4762 8.16665 22.1667 8.16665ZM11.6667 6.99998C11.6667 6.38114 11.9126 5.78765 12.3502 5.35006C12.7878 4.91248 13.3812 4.66665 14.0001 4.66665C14.6189 4.66665 15.2124 4.91248 15.65 5.35006C16.0876 5.78765 16.3334 6.38114 16.3334 6.99998V8.16665H11.6667V6.99998ZM21.0001 22.1666C21.0001 22.4761 20.8772 22.7728 20.6584 22.9916C20.4396 23.2104 20.1428 23.3333 19.8334 23.3333H8.16675C7.85733 23.3333 7.56058 23.2104 7.34179 22.9916C7.123 22.7728 7.00008 22.4761 7.00008 22.1666V10.5H9.33341V11.6666C9.33341 11.9761 9.45633 12.2728 9.67512 12.4916C9.89392 12.7104 10.1907 12.8333 10.5001 12.8333C10.8095 12.8333 11.1062 12.7104 11.325 12.4916C11.5438 12.2728 11.6667 11.9761 11.6667 11.6666V10.5H16.3334V11.6666C16.3334 11.9761 16.4563 12.2728 16.6751 12.4916C16.8939 12.7104 17.1907 12.8333 17.5001 12.8333C17.8095 12.8333 18.1062 12.7104 18.325 12.4916C18.5438 12.2728 18.6667 11.9761 18.6667 11.6666V10.5H21.0001V22.1666Z" fill="black"/>
</svg>
