<svg width="24" height="26" viewBox="0 0 24 26" fill="none" xmlns="http://www.w3.org/2000/svg">
<path d="M12 7.4375C11.0111 7.4375 10.0444 7.74907 9.22215 8.33282C8.3999 8.91656 7.75904 9.74626 7.3806 10.717C7.00216 11.6877 6.90315 12.7559 7.09607 13.7864C7.289 14.8169 7.7652 15.7635 8.46447 16.5065C9.16373 17.2495 10.0546 17.7554 11.0245 17.9604C11.9945 18.1654 12.9998 18.0602 13.9134 17.6581C14.827 17.256 15.6079 16.5751 16.1573 15.7015C16.7068 14.8278 17 13.8007 17 12.75C17 11.341 16.4732 9.98978 15.5355 8.99349C14.5979 7.99721 13.3261 7.4375 12 7.4375ZM12 15.9375C11.4067 15.9375 10.8266 15.7506 10.3333 15.4003C9.83994 15.0501 9.45542 14.5522 9.22836 13.9698C9.0013 13.3874 8.94189 12.7465 9.05764 12.1281C9.1734 11.5098 9.45912 10.9419 9.87868 10.4961C10.2982 10.0503 10.8328 9.74674 11.4147 9.62375C11.9967 9.50076 12.5999 9.56388 13.1481 9.80513C13.6962 10.0464 14.1648 10.4549 14.4944 10.9791C14.8241 11.5033 15 12.1196 15 12.75C15 13.5954 14.6839 14.4061 14.1213 15.0039C13.5587 15.6017 12.7956 15.9375 12 15.9375ZM17 6.375C16.8022 6.375 16.6089 6.43731 16.4444 6.55406C16.28 6.67081 16.1518 6.83675 16.0761 7.0309C16.0004 7.22505 15.9806 7.43868 16.0192 7.64478C16.0578 7.85089 16.153 8.04021 16.2929 8.1888C16.4327 8.33739 16.6109 8.43859 16.8049 8.47958C16.9989 8.52058 17.2 8.49954 17.3827 8.41912C17.5654 8.3387 17.7216 8.20252 17.8315 8.02779C17.9414 7.85307 18 7.64764 18 7.4375C18 7.15571 17.8946 6.88546 17.7071 6.6862C17.5196 6.48694 17.2652 6.375 17 6.375ZM21.94 8.755C21.9234 7.84701 21.7611 6.94869 21.46 6.09875C21.1808 5.32532 20.7516 4.62293 20.2003 4.03718C19.649 3.45143 18.9879 2.99542 18.26 2.69875C17.4601 2.37883 16.6146 2.20635 15.76 2.18875C14.79 2.125 14.47 2.125 12 2.125C9.53 2.125 9.21 2.125 8.24 2.18875C7.38542 2.20635 6.53995 2.37883 5.74 2.69875C5.01207 2.99542 4.35099 3.45143 3.7997 4.03718C3.2484 4.62293 2.81922 5.32532 2.54 6.09875C2.2389 6.94869 2.07657 7.84701 2.06 8.755C2 9.79625 2 10.1362 2 12.75C2 15.3638 2 15.7038 2.06 16.745C2.07657 17.653 2.2389 18.5513 2.54 19.4013C2.81922 20.1747 3.2484 20.8771 3.7997 21.4628C4.35099 22.0486 5.01207 22.5046 5.74 22.8012C6.53995 23.1212 7.38542 23.2936 8.24 23.3113C9.24 23.3113 9.53 23.375 12 23.375C14.47 23.375 14.79 23.375 15.76 23.3113C16.6146 23.2936 17.4601 23.1212 18.26 22.8012C18.9879 22.5046 19.649 22.0486 20.2003 21.4628C20.7516 20.8771 21.1808 20.1747 21.46 19.4013C21.7611 18.5513 21.9234 17.653 21.94 16.745C21.94 15.6825 22 15.3638 22 12.75C22 10.1362 22 9.79625 21.94 8.755ZM19.94 16.6494C19.9225 17.3237 19.8043 17.9907 19.59 18.6256C19.4128 19.1275 19.1327 19.5812 18.77 19.9538C18.4214 20.3393 17.9936 20.6338 17.52 20.8144C16.921 21.0514 16.289 21.1807 15.65 21.1969C14.71 21.1969 14.42 21.25 11.99 21.25C9.56 21.25 9.28 21.25 8.34 21.25C7.70202 21.2325 7.07075 21.107 6.47 20.8781C5.99766 20.6898 5.57067 20.3922 5.22 20.0069C4.85715 19.6365 4.57992 19.1819 4.41 18.6787C4.1878 18.0457 4.06615 17.3779 4.05 16.7025C4.05 15.64 4.05 15.3744 4.05 12.8031C4.05 10.2319 4.05 9.92375 4.05 8.90375C4.06724 8.22503 4.18884 7.55388 4.41 6.91688C4.58256 6.41817 4.85953 5.96766 5.22 5.59938C5.56858 5.21385 5.99641 4.91929 6.47 4.73875C7.06899 4.5017 7.70099 4.37243 8.34 4.35625C9.28 4.25 9.57 4.25 12 4.25C14.43 4.25 14.72 4.25 15.66 4.25C16.3021 4.26735 16.9373 4.39657 17.54 4.6325C18.0094 4.81584 18.4334 5.11013 18.78 5.49312C19.1428 5.86349 19.4201 6.31806 19.59 6.82125C19.8348 7.46785 19.9735 8.15424 20 8.85063C20 9.91313 20.05 10.1788 20.05 12.75C20.05 15.3212 20 15.6294 20 16.6494H19.94Z" fill="#343232"/>
</svg>
