<svg width="24" height="26" viewBox="0 0 24 26" fill="none" xmlns="http://www.w3.org/2000/svg">
<path d="M11.9943 2.625C10.0165 2.625 8.08312 3.24815 6.43863 4.41564C4.79413 5.58313 3.51241 7.24252 2.75553 9.18399C1.99866 11.1255 1.80062 13.2618 2.18648 15.3228C2.57233 17.3839 3.52474 19.2771 4.92326 20.763C6.32179 22.2489 8.10362 23.2609 10.0434 23.6708C11.9832 24.0808 13.9939 23.8704 15.8212 23.0662C17.6484 22.262 19.2102 20.9002 20.309 19.1529C21.4078 17.4057 21.9943 15.3514 21.9943 13.25C21.9944 11.8547 21.7359 10.473 21.2333 9.18385C20.7308 7.89471 19.9942 6.72338 19.0656 5.73673C18.137 4.75009 17.0346 3.96746 15.8213 3.43354C14.608 2.89963 13.3076 2.62488 11.9943 2.625ZM15.1738 18.7245C15.1364 18.8237 15.0795 18.9132 15.0068 18.987C14.9342 19.0609 14.8475 19.1174 14.7526 19.1528C14.6577 19.1882 14.5568 19.2016 14.4566 19.1921C14.3565 19.1826 14.2594 19.1506 14.1718 19.098L11.4572 16.8568L9.71485 18.5646C9.67442 18.5964 9.62713 18.6168 9.57733 18.624C9.52752 18.6312 9.47681 18.625 9.42985 18.606L9.76385 15.4308L9.77454 15.4398L9.78137 15.3771C9.78137 15.3771 14.6664 10.6516 14.8654 10.4503C15.0668 10.2495 15.0004 10.2059 15.0004 10.2059C15.0118 9.96096 14.6388 10.2059 14.6388 10.2059L8.16633 14.6302L5.47084 13.6548C5.47084 13.6548 5.05684 13.497 5.01784 13.1501C4.97684 12.8059 5.48433 12.6189 5.48433 12.6189L16.2013 8.09527C16.2013 8.09527 17.0823 7.67822 17.0823 8.36888L15.1738 18.7245Z" fill="#343232"/>
</svg>
