<svg width="24" height="26" viewBox="0 0 24 26" fill="none" xmlns="http://www.w3.org/2000/svg">
<path d="M15.0729 2.375H8.9375C3.33331 2.375 2 3.79164 2 9.735V16.2539C2 22.2083 3.32294 23.625 8.92706 23.625H15.0625C20.6667 23.625 22 22.2194 22 16.2649V9.74609C22 3.79164 20.6771 2.375 15.0729 2.375ZM18.1458 17.5377H16.6875C16.1354 17.5377 15.9688 17.0618 14.9792 16.0104C14.1146 15.125 13.75 15.0143 13.5312 15.0143C13.2292 15.0143 13.1458 15.1028 13.1458 15.5455V16.9401C13.1458 17.3164 13.0312 17.5377 12.1042 17.5377C11.2046 17.4735 10.3322 17.1831 9.55888 16.6905C8.78557 16.1979 8.13346 15.5172 7.65625 14.7044C6.52336 13.2062 5.73511 11.4478 5.35419 9.56899C5.35419 9.33656 5.4375 9.12626 5.85419 9.12626H7.3125C7.6875 9.12626 7.82294 9.30336 7.96875 9.71289C8.67706 11.9264 9.88544 13.8522 10.375 13.8522C10.5625 13.8522 10.6458 13.7637 10.6458 13.2656V10.9856C10.5833 9.94531 10.0625 9.85673 10.0625 9.48047C10.0694 9.3812 10.1124 9.28867 10.1824 9.22254C10.2524 9.15641 10.3439 9.12187 10.4375 9.12626H12.7292C13.0417 9.12626 13.1458 9.29228 13.1458 9.69072V12.7676C13.1458 13.0996 13.2812 13.2102 13.375 13.2102C13.5625 13.2102 13.7083 13.0996 14.0521 12.7344C14.7907 11.7773 15.3943 10.7109 15.8438 9.56899C15.8896 9.43158 15.9766 9.31391 16.0913 9.23396C16.2061 9.15402 16.3423 9.11619 16.4792 9.12626H17.9375C18.375 9.12626 18.4688 9.35868 18.375 9.69072C17.8444 10.9533 17.1878 12.1518 16.4167 13.2656C16.2604 13.5202 16.1979 13.653 16.4167 13.9518C16.5625 14.1842 17.0729 14.638 17.4167 15.0696C17.9167 15.5995 18.3318 16.2127 18.6458 16.8848C18.7708 17.3164 18.5625 17.5377 18.1458 17.5377Z" fill="#343232"/>
</svg>
